<svg xmlns="http://www.w3.org/2000/svg" xmlns:xlink="http://www.w3.org/1999/xlink" width="200" zoomAndPan="magnify" viewBox="0 0 150 37.5" height="50" preserveAspectRatio="xMidYMid meet" version="1.0"><defs><g/><clipPath id="id1"><path d="M 7.164062 3 L 30.847656 3 L 30.847656 32.945312 L 7.164062 32.945312 Z M 7.164062 3 " clip-rule="nonzero"/></clipPath></defs><g fill="rgb(0%, 0%, 0%)" fill-opacity="1"><g transform="translate(35.612921, 28.906605)"><g><path d="M 1.042969 -19.171875 L 7.488281 -19.171875 L 7.488281 -16.277344 L 3.859375 -16.277344 L 3.859375 -11.242188 L 6.46875 -11.242188 L 6.46875 -8.164062 L 3.859375 -8.164062 L 3.859375 -2.894531 L 7.488281 -2.894531 L 7.488281 0 L 1.042969 0 Z M 1.042969 -19.171875 "/></g></g></g><g fill="rgb(0%, 0%, 0%)" fill-opacity="1"><g transform="translate(43.621233, 28.906605)"><g><path d="M 3.46875 -3.285156 C 3.46875 -2.765625 3.496094 -2.140625 4.199219 -2.140625 C 4.800781 -2.140625 4.957031 -2.425781 4.957031 -3.285156 L 4.957031 -5.269531 L 7.589844 -5.269531 L 7.589844 -3.886719 C 7.589844 -2.296875 7.304688 -1.277344 6.730469 -0.652344 C 6.15625 -0.0273438 5.320312 0.207031 4.199219 0.207031 C 3.261719 0.207031 2.398438 -0.0507812 1.800781 -0.703125 C 1.199219 -1.355469 0.835938 -2.425781 0.835938 -4.015625 L 0.835938 -10.25 C 0.835938 -11.84375 1.199219 -12.914062 1.800781 -13.566406 C 2.398438 -14.214844 3.261719 -14.476562 4.199219 -14.476562 C 5.320312 -14.476562 6.15625 -14.242188 6.730469 -13.617188 C 7.304688 -12.992188 7.589844 -11.972656 7.589844 -10.382812 L 7.589844 -9.261719 L 4.957031 -9.261719 L 4.957031 -10.980469 C 4.957031 -11.84375 4.800781 -12.128906 4.199219 -12.128906 C 3.496094 -12.128906 3.46875 -11.503906 3.46875 -10.980469 Z M 3.46875 -3.285156 "/></g></g></g><g fill="rgb(0%, 0%, 0%)" fill-opacity="1"><g transform="translate(51.838247, 28.906605)"><g><path d="M 7.566406 -3.46875 C 7.488281 -2.085938 7.070312 -1.121094 6.15625 -0.363281 C 5.6875 0.0273438 5.035156 0.207031 4.171875 0.207031 C 2.476562 0.207031 1.644531 -0.730469 1.226562 -1.667969 C 0.992188 -2.21875 0.835938 -2.84375 0.808594 -3.546875 L 0.808594 -10.722656 C 0.886719 -12.105469 1.304688 -13.121094 2.21875 -13.902344 C 2.660156 -14.292969 3.3125 -14.476562 4.171875 -14.476562 C 5.871094 -14.476562 6.730469 -13.539062 7.148438 -12.625 C 7.382812 -12.078125 7.539062 -11.476562 7.566406 -10.800781 Z M 5.085938 -10.722656 C 5.113281 -11.269531 5.007812 -11.660156 4.746094 -11.972656 C 4.617188 -12.105469 4.410156 -12.183594 4.171875 -12.183594 C 3.679688 -12.183594 3.46875 -11.84375 3.363281 -11.453125 C 3.285156 -11.242188 3.261719 -11.007812 3.285156 -10.722656 L 3.285156 -3.546875 C 3.261719 -3 3.390625 -2.609375 3.625 -2.320312 C 3.757812 -2.191406 3.9375 -2.113281 4.171875 -2.113281 C 4.667969 -2.113281 4.902344 -2.425781 5.007812 -2.816406 C 5.085938 -3.027344 5.113281 -3.261719 5.085938 -3.546875 Z M 5.085938 -10.722656 "/></g></g></g><g fill="rgb(0%, 0%, 0%)" fill-opacity="1"><g transform="translate(60.211755, 28.906605)"><g><path d="M 6.050781 -8.347656 L 3.859375 -8.347656 L 3.859375 0 L 1.042969 0 L 1.042969 -19.171875 L 3.859375 -19.171875 L 3.859375 -11.242188 L 6.050781 -11.242188 L 6.050781 -19.171875 L 8.867188 -19.171875 L 8.867188 0 L 6.050781 0 Z M 6.050781 -8.347656 "/></g></g></g><g fill="rgb(0%, 0%, 0%)" fill-opacity="1"><g transform="translate(70.124328, 28.906605)"><g><path d="M 7.644531 -5.113281 L 7.644531 -3.46875 C 7.566406 -2.085938 7.148438 -1.121094 6.207031 -0.363281 C 5.738281 0.0273438 5.085938 0.207031 4.226562 0.207031 C 2.53125 0.207031 1.667969 -0.730469 1.253906 -1.667969 C 1.015625 -2.21875 0.859375 -2.84375 0.835938 -3.546875 L 0.835938 -10.722656 C 0.914062 -12.105469 1.355469 -13.121094 2.296875 -13.902344 C 2.738281 -14.292969 3.390625 -14.476562 4.25 -14.476562 C 5.949219 -14.476562 6.808594 -13.539062 7.226562 -12.625 C 7.460938 -12.078125 7.617188 -11.476562 7.644531 -10.800781 L 7.644531 -6.652344 L 3.285156 -6.652344 L 3.285156 -3.546875 C 3.3125 -3 3.46875 -2.609375 3.703125 -2.320312 C 3.835938 -2.191406 4.015625 -2.113281 4.25 -2.113281 C 4.746094 -2.113281 4.980469 -2.425781 5.085938 -2.816406 C 5.164062 -3.027344 5.191406 -3.261719 5.191406 -3.546875 L 5.191406 -5.113281 Z M 3.285156 -8.710938 L 5.191406 -8.710938 L 5.191406 -10.722656 C 5.191406 -11.269531 5.085938 -11.660156 4.824219 -11.972656 C 4.695312 -12.105469 4.488281 -12.183594 4.25 -12.183594 C 3.757812 -12.183594 3.546875 -11.84375 3.417969 -11.453125 C 3.339844 -11.242188 3.3125 -11.007812 3.285156 -10.722656 Z M 3.285156 -8.710938 "/></g></g></g><g fill="rgb(0%, 0%, 0%)" fill-opacity="1"><g transform="translate(78.523941, 28.906605)"><g><path d="M 5.035156 -10.878906 C 5.035156 -11.113281 5.035156 -11.476562 4.957031 -11.738281 C 4.851562 -12 4.644531 -12.183594 4.304688 -12.183594 C 3.859375 -12.183594 3.679688 -11.84375 3.601562 -11.425781 C 3.574219 -11.214844 3.546875 -10.980469 3.546875 -10.746094 C 3.546875 -10.511719 3.546875 -10.277344 3.546875 -10.070312 L 0.914062 -10.070312 L 0.914062 -10.667969 C 0.914062 -11.710938 1.304688 -12.652344 1.929688 -13.355469 C 2.554688 -14.058594 3.441406 -14.476562 4.460938 -14.476562 C 5.320312 -14.476562 6.105469 -14.136719 6.703125 -13.566406 C 7.304688 -12.992188 7.667969 -12.183594 7.667969 -11.242188 L 7.667969 -2.476562 C 7.667969 -1.199219 7.746094 -0.625 7.851562 0 L 5.269531 0 C 5.035156 -0.285156 5.035156 -0.964844 5.035156 -1.148438 L 4.851562 -1.148438 C 4.722656 -0.914062 4.488281 -0.574219 4.121094 -0.285156 C 3.757812 0 3.261719 0.207031 2.738281 0.207031 C 2.398438 0.207031 1.851562 0.078125 1.433594 -0.445312 C 0.992188 -0.9375 0.625 -1.824219 0.625 -3.3125 C 0.625 -4.902344 1.09375 -6.050781 1.722656 -6.835938 C 2.347656 -7.617188 3.128906 -8.113281 3.78125 -8.453125 C 4.433594 -8.789062 4.929688 -9.027344 5.035156 -9.3125 Z M 5.035156 -6.886719 C 3.757812 -6.339844 3.207031 -5.0625 3.207031 -3.703125 C 3.207031 -3.523438 3.234375 -3.207031 3.339844 -2.921875 C 3.441406 -2.609375 3.625 -2.375 3.9375 -2.375 C 4.539062 -2.375 5.035156 -2.738281 5.035156 -3.234375 Z M 5.035156 -6.886719 "/></g></g></g><g fill="rgb(0%, 0%, 0%)" fill-opacity="1"><g transform="translate(86.949624, 28.906605)"><g><path d="M 1.042969 -19.171875 L 3.679688 -19.171875 L 3.679688 0 L 1.042969 0 Z M 1.042969 -19.171875 "/></g></g></g><g fill="rgb(0%, 0%, 0%)" fill-opacity="1"><g transform="translate(91.671137, 28.906605)"><g><path d="M 4.226562 -17.789062 L 4.226562 -14.269531 L 6.027344 -14.269531 L 6.027344 -11.894531 L 4.226562 -11.894531 L 4.226562 -4.800781 C 4.226562 -4.355469 4.226562 -3.78125 4.332031 -3.3125 C 4.433594 -2.84375 4.644531 -2.453125 5.0625 -2.453125 C 5.269531 -2.453125 5.53125 -2.476562 5.710938 -2.503906 C 5.816406 -2.53125 5.921875 -2.53125 6.027344 -2.554688 L 6.027344 0.0273438 C 5.894531 0.0507812 5.765625 0.105469 5.632812 0.128906 C 5.375 0.183594 5.035156 0.207031 4.617188 0.207031 C 3.078125 0.207031 2.347656 -0.574219 1.984375 -1.566406 C 1.617188 -2.554688 1.589844 -3.757812 1.589844 -4.589844 L 1.589844 -11.894531 L 0.261719 -11.894531 L 0.261719 -14.269531 L 1.589844 -14.269531 L 1.589844 -17.789062 Z M 4.226562 -17.789062 "/></g></g></g><g fill="rgb(0%, 0%, 0%)" fill-opacity="1"><g transform="translate(98.062137, 28.906605)"><g><path d="M 3.679688 0 L 1.042969 0 L 1.042969 -19.171875 L 3.679688 -19.171875 L 3.679688 -13.070312 C 3.730469 -13.09375 3.835938 -13.199219 3.992188 -13.355469 C 4.277344 -13.644531 4.667969 -14.035156 5.140625 -14.292969 C 5.375 -14.425781 5.582031 -14.476562 5.816406 -14.476562 C 6.519531 -14.476562 7.015625 -14.058594 7.328125 -13.539062 C 7.644531 -12.992188 7.800781 -12.285156 7.800781 -11.6875 L 7.800781 0 L 5.164062 0 L 5.164062 -11.296875 C 5.164062 -11.84375 4.851562 -11.921875 4.539062 -11.921875 C 4.25 -11.921875 4.09375 -11.765625 3.914062 -11.582031 C 3.835938 -11.476562 3.757812 -11.375 3.679688 -11.242188 Z M 3.679688 0 "/></g></g></g><g fill="rgb(0%, 0%, 0%)" fill-opacity="1"><g transform="translate(106.853017, 28.906605)"><g><path d="M 4.015625 -9.992188 L 3.78125 -10.878906 L 3.625 -10.878906 L 3.625 0 L 1.042969 0 L 1.042969 -19.171875 L 3.546875 -19.171875 L 6.285156 -9.183594 L 6.519531 -8.296875 L 6.679688 -8.296875 L 6.679688 -19.171875 L 9.261719 -19.171875 L 9.261719 0 L 6.757812 0 Z M 4.015625 -9.992188 "/></g></g></g><g fill="rgb(0%, 0%, 0%)" fill-opacity="1"><g transform="translate(117.156891, 28.906605)"><g><path d="M 7.644531 -5.113281 L 7.644531 -3.46875 C 7.566406 -2.085938 7.148438 -1.121094 6.207031 -0.363281 C 5.738281 0.0273438 5.085938 0.207031 4.226562 0.207031 C 2.53125 0.207031 1.667969 -0.730469 1.253906 -1.667969 C 1.015625 -2.21875 0.859375 -2.84375 0.835938 -3.546875 L 0.835938 -10.722656 C 0.914062 -12.105469 1.355469 -13.121094 2.296875 -13.902344 C 2.738281 -14.292969 3.390625 -14.476562 4.25 -14.476562 C 5.949219 -14.476562 6.808594 -13.539062 7.226562 -12.625 C 7.460938 -12.078125 7.617188 -11.476562 7.644531 -10.800781 L 7.644531 -6.652344 L 3.285156 -6.652344 L 3.285156 -3.546875 C 3.3125 -3 3.46875 -2.609375 3.703125 -2.320312 C 3.835938 -2.191406 4.015625 -2.113281 4.25 -2.113281 C 4.746094 -2.113281 4.980469 -2.425781 5.085938 -2.816406 C 5.164062 -3.027344 5.191406 -3.261719 5.191406 -3.546875 L 5.191406 -5.113281 Z M 3.285156 -8.710938 L 5.191406 -8.710938 L 5.191406 -10.722656 C 5.191406 -11.269531 5.085938 -11.660156 4.824219 -11.972656 C 4.695312 -12.105469 4.488281 -12.183594 4.25 -12.183594 C 3.757812 -12.183594 3.546875 -11.84375 3.417969 -11.453125 C 3.339844 -11.242188 3.3125 -11.007812 3.285156 -10.722656 Z M 3.285156 -8.710938 "/></g></g></g><g fill="rgb(0%, 0%, 0%)" fill-opacity="1"><g transform="translate(125.556503, 28.906605)"><g><path d="M 6.964844 0 L 5.949219 -6.808594 L 5.816406 -7.617188 L 5.710938 -7.617188 L 5.582031 -6.808594 L 4.566406 0 L 2.375 0 L 0.261719 -14.269531 L 2.660156 -14.269531 L 3.496094 -6.808594 L 3.601562 -6 L 3.757812 -6 L 3.886719 -6.808594 L 4.980469 -14.269531 L 6.546875 -14.269531 L 7.644531 -6.808594 L 7.773438 -6 L 7.929688 -6 L 8.035156 -6.808594 L 8.867188 -14.269531 L 11.269531 -14.269531 L 9.15625 0 Z M 6.964844 0 "/></g></g></g><g fill="rgb(0%, 0%, 0%)" fill-opacity="1"><g transform="translate(137.086388, 28.906605)"><g><path d="M 5.035156 -10.617188 C 5.035156 -10.957031 5.035156 -11.375 4.929688 -11.710938 C 4.800781 -12.027344 4.589844 -12.285156 4.171875 -12.285156 C 3.835938 -12.285156 3.625 -12.027344 3.523438 -11.710938 C 3.390625 -11.398438 3.363281 -10.957031 3.363281 -10.617188 C 3.363281 -10.171875 3.601562 -9.703125 3.9375 -9.285156 C 4.25 -8.867188 4.667969 -8.453125 5.085938 -8.058594 C 5.632812 -7.511719 6.285156 -6.886719 6.730469 -6.183594 C 7.171875 -5.453125 7.511719 -4.644531 7.511719 -3.703125 C 7.511719 -2.792969 7.304688 -1.824219 6.78125 -1.09375 C 6.234375 -0.339844 5.398438 0.207031 4.148438 0.207031 C 2.554688 0.207031 1.617188 -0.523438 1.09375 -1.410156 C 0.574219 -2.296875 0.46875 -3.390625 0.46875 -4.148438 L 2.921875 -4.148438 C 2.921875 -3.757812 2.949219 -3.207031 3.128906 -2.792969 C 3.3125 -2.347656 3.601562 -1.984375 4.148438 -1.984375 C 4.902344 -1.984375 5.0625 -2.871094 5.0625 -3.703125 C 5.0625 -4.566406 4.226562 -5.425781 3.417969 -6.234375 C 2.792969 -6.835938 2.191406 -7.382812 1.722656 -8.085938 C 1.253906 -8.789062 0.914062 -9.574219 0.914062 -10.617188 C 0.914062 -11.453125 1.070312 -12.417969 1.566406 -13.171875 C 2.0625 -13.902344 2.871094 -14.453125 4.121094 -14.476562 C 5.660156 -14.503906 6.519531 -13.929688 6.964844 -13.171875 C 7.410156 -12.417969 7.488281 -11.425781 7.488281 -10.617188 Z M 5.035156 -10.617188 "/></g></g></g><g clip-path="url(#id1)"><path fill="rgb(0%, 63.139343%, 100%)" d="M 28.882812 24.640625 C 28.882812 14.820312 28.882812 9.371094 28.882812 8.277344 C 25.3125 6.453125 22.394531 5.644531 19.449219 5.644531 C 16.441406 5.644531 13.246094 6.476562 9.113281 8.359375 C 9.113281 9.445312 9.113281 14.871094 9.113281 24.640625 L 19 30.695312 Z M 16.390625 19.433594 C 14.289062 19.433594 13.121094 19.433594 12.886719 19.433594 C 12.679688 19.433594 12.511719 19.269531 12.511719 19.066406 C 12.511719 18.628906 12.511719 15.125 12.511719 14.6875 C 12.511719 14.484375 12.679688 14.320312 12.886719 14.320312 C 13.121094 14.320312 14.289062 14.320312 16.390625 14.320312 C 16.390625 12.25 16.390625 11.101562 16.390625 10.871094 C 16.390625 10.667969 16.558594 10.503906 16.761719 10.503906 C 17.210938 10.503906 20.785156 10.503906 21.234375 10.503906 C 21.4375 10.503906 21.605469 10.667969 21.605469 10.871094 C 21.605469 11.101562 21.605469 12.25 21.605469 14.320312 C 23.710938 14.320312 24.882812 14.320312 25.113281 14.320312 C 25.320312 14.320312 25.488281 14.484375 25.488281 14.6875 C 25.488281 15.125 25.488281 18.628906 25.488281 19.066406 C 25.488281 19.269531 25.320312 19.433594 25.113281 19.433594 C 24.882812 19.433594 23.710938 19.433594 21.605469 19.433594 C 21.605469 21.496094 21.605469 22.644531 21.605469 22.875 C 21.605469 23.078125 21.4375 23.242188 21.234375 23.242188 C 20.785156 23.242188 17.210938 23.242188 16.761719 23.242188 C 16.558594 23.242188 16.390625 23.078125 16.390625 22.875 C 16.390625 22.875 16.390625 22.871094 16.390625 22.871094 C 16.390625 22.414062 16.390625 21.265625 16.390625 19.433594 Z M 21.234375 18.675781 C 21.027344 18.675781 20.859375 18.839844 20.859375 19.042969 C 20.859375 19.269531 20.859375 20.417969 20.859375 22.484375 L 17.15625 22.484375 C 17.15625 20.433594 17.15625 19.296875 17.15625 19.066406 C 17.15625 18.867188 16.992188 18.703125 16.785156 18.703125 C 16.550781 18.703125 15.378906 18.703125 13.269531 18.703125 L 13.269531 15.050781 C 15.367188 15.050781 16.53125 15.050781 16.761719 15.050781 C 16.96875 15.050781 17.136719 14.886719 17.136719 14.6875 C 17.136719 14.457031 17.136719 13.308594 17.136719 11.246094 L 20.816406 11.246094 C 20.816406 13.308594 20.816406 14.457031 20.816406 14.6875 C 20.816406 14.886719 20.984375 15.050781 21.1875 15.050781 C 21.421875 15.050781 22.589844 15.050781 24.695312 15.050781 L 24.695312 18.664062 C 22.847656 18.671875 21.695312 18.675781 21.234375 18.675781 Z M 30.804688 25.679688 C 30.804688 14.570312 30.804688 8.394531 30.804688 7.160156 C 22.476562 2.636719 16.683594 2.636719 7.203125 7.171875 C 7.203125 8.40625 7.203125 14.574219 7.203125 25.679688 L 19 32.90625 Z M 8.527344 25.164062 C 8.414062 25.097656 8.347656 24.976562 8.347656 24.847656 C 8.347656 23.171875 8.347656 9.789062 8.347656 8.113281 C 8.347656 7.96875 8.433594 7.835938 8.570312 7.773438 C 12.917969 5.777344 16.273438 4.886719 19.449219 4.886719 C 22.625 4.886719 25.667969 5.761719 29.429688 7.71875 C 29.554688 7.78125 29.636719 7.910156 29.632812 8.050781 C 29.632812 9.730469 29.632812 23.167969 29.632812 24.847656 C 29.636719 24.976562 29.566406 25.097656 29.453125 25.164062 C 28.429688 25.792969 20.226562 30.828125 19.199219 31.457031 C 19.078125 31.535156 18.917969 31.535156 18.796875 31.457031 C 16.742188 30.199219 10.582031 26.421875 8.527344 25.164062 Z M 8.527344 25.164062 " fill-opacity="1" fill-rule="nonzero"/></g></svg>